<?xml version="1.0" encoding="UTF-8"?>
<!-- Generator: Adobe Illustrator 17.0.0, SVG Export Plug-In . SVG Version: 6.00 Build 0)  -->
<!DOCTYPE svg PUBLIC "-//W3C//DTD SVG 1.1//EN" "http://www.w3.org/Graphics/SVG/1.1/DTD/svg11.dtd">
<svg version="1.1" id="Layer_1" xmlns="http://www.w3.org/2000/svg" xmlns:xlink="http://www.w3.org/1999/xlink" x="0px" y="0px" width="320px" height="150px" viewBox="0 0 320 150" enable-background="new 0 0 320 150" xml:space="preserve">
<g>
	<path d="M47.383,129.559c0,1.539-0.189,2.927-0.567,4.163s-0.943,2.289-1.694,3.159c-0.75,0.871-1.687,1.539-2.81,2.006   c-1.123,0.467-2.428,0.7-3.917,0.7c-0.681,0-1.35-0.041-2.006-0.123s-1.343-0.211-2.062-0.388l0.265-3.027   c0.025-0.277,0.129-0.502,0.312-0.672c0.183-0.17,0.451-0.256,0.804-0.256c0.214,0,0.495,0.045,0.842,0.133   c0.347,0.089,0.785,0.133,1.315,0.133c0.719,0,1.355-0.104,1.911-0.313c0.555-0.208,1.018-0.539,1.391-0.993   c0.372-0.454,0.653-1.044,0.842-1.77c0.189-0.725,0.284-1.604,0.284-2.64v-17.747h5.09V129.559z"/>
	<path d="M70.164,111.925v4.049H58.035v7.587h9.555v3.917h-9.555v7.738h12.128v4.068H52.908v-27.359H70.164z"/>
	<path d="M98.621,139.284h-3.936c-0.442,0-0.804-0.11-1.088-0.331s-0.489-0.495-0.615-0.823l-2.043-5.582H79.605l-2.043,5.582   c-0.101,0.29-0.3,0.556-0.596,0.795s-0.659,0.359-1.088,0.359h-3.954l10.747-27.359h5.203L98.621,139.284z M80.911,128.953h8.723   l-3.33-9.101c-0.151-0.403-0.319-0.88-0.501-1.429c-0.183-0.549-0.363-1.145-0.54-1.788c-0.177,0.644-0.35,1.242-0.52,1.798   c-0.17,0.555-0.338,1.04-0.501,1.457L80.911,128.953z"/>
	<path d="M104.675,111.953c0.151,0.019,0.287,0.057,0.407,0.113c0.12,0.057,0.236,0.139,0.35,0.246   c0.113,0.107,0.239,0.249,0.378,0.426l14.361,18.296c-0.05-0.441-0.085-0.873-0.104-1.296c-0.019-0.422-0.028-0.816-0.028-1.183   v-16.631h4.484v27.359h-2.63c-0.404,0-0.738-0.063-1.002-0.189c-0.265-0.126-0.524-0.353-0.776-0.681l-14.304-18.221   c0.038,0.403,0.066,0.804,0.085,1.201s0.028,0.76,0.028,1.088v16.802h-4.484v-27.359h2.667   C104.334,111.925,104.523,111.934,104.675,111.953z"/>
	<path d="M144.711,116.9c-0.139,0.278-0.3,0.474-0.482,0.587c-0.183,0.113-0.401,0.17-0.653,0.17c-0.252,0-0.536-0.098-0.852-0.293   s-0.688-0.413-1.116-0.652c-0.429-0.24-0.931-0.458-1.504-0.653c-0.574-0.195-1.252-0.293-2.034-0.293   c-0.707,0-1.322,0.085-1.845,0.255c-0.523,0.171-0.965,0.407-1.324,0.71s-0.627,0.665-0.804,1.088s-0.265,0.887-0.265,1.391   c0,0.644,0.18,1.18,0.539,1.608s0.835,0.795,1.429,1.098c0.593,0.303,1.268,0.574,2.024,0.813s1.529,0.495,2.318,0.766   c0.788,0.271,1.561,0.587,2.318,0.946s1.431,0.813,2.024,1.362c0.593,0.549,1.069,1.221,1.429,2.016   c0.359,0.794,0.539,1.76,0.539,2.895c0,1.236-0.211,2.394-0.634,3.472c-0.423,1.079-1.041,2.019-1.854,2.819   c-0.813,0.802-1.807,1.432-2.98,1.893c-1.173,0.46-2.517,0.69-4.03,0.69c-0.87,0-1.728-0.085-2.573-0.256   c-0.845-0.17-1.655-0.412-2.431-0.729c-0.776-0.314-1.501-0.693-2.176-1.135c-0.675-0.441-1.277-0.934-1.807-1.476l1.476-2.441   c0.138-0.176,0.306-0.324,0.501-0.444c0.196-0.12,0.413-0.18,0.653-0.18c0.315,0,0.656,0.13,1.022,0.388   c0.366,0.259,0.797,0.546,1.296,0.861c0.498,0.315,1.085,0.603,1.76,0.86c0.675,0.259,1.485,0.388,2.431,0.388   c1.451,0,2.573-0.343,3.368-1.03c0.794-0.688,1.192-1.675,1.192-2.962c0-0.719-0.18-1.306-0.539-1.76   c-0.36-0.454-0.836-0.835-1.429-1.145c-0.593-0.309-1.268-0.57-2.024-0.785c-0.757-0.214-1.526-0.447-2.309-0.7   c-0.782-0.252-1.551-0.555-2.308-0.908c-0.757-0.353-1.432-0.813-2.024-1.381c-0.593-0.567-1.069-1.277-1.429-2.129   s-0.539-1.901-0.539-3.15c0-0.996,0.198-1.968,0.596-2.913c0.397-0.946,0.978-1.785,1.741-2.517s1.7-1.318,2.81-1.76   c1.11-0.441,2.377-0.662,3.803-0.662c1.615,0,3.103,0.252,4.465,0.757c1.362,0.504,2.523,1.211,3.481,2.119L144.711,116.9z"/>
	<path d="M180.736,139.284h-5.127v-11.958H162.78v11.958h-5.127v-27.359h5.127v11.769h12.829v-11.769h5.127V139.284z"/>
	<path d="M212.505,125.604c0,2.006-0.334,3.863-1.003,5.572s-1.608,3.188-2.819,4.437s-2.668,2.224-4.37,2.924   c-1.703,0.7-3.589,1.05-5.658,1.05c-2.068,0-3.957-0.35-5.666-1.05c-1.71-0.7-3.173-1.675-4.39-2.924   c-1.218-1.249-2.161-2.728-2.829-4.437c-0.669-1.709-1.003-3.566-1.003-5.572s0.334-3.863,1.003-5.572   c0.668-1.709,1.611-3.188,2.829-4.438c1.217-1.248,2.68-2.223,4.39-2.923c1.709-0.7,3.598-1.05,5.666-1.05   c2.069,0,3.955,0.353,5.658,1.06c1.702,0.706,3.159,1.681,4.37,2.923s2.15,2.719,2.819,4.428S212.505,123.599,212.505,125.604z    M207.282,125.604c0-1.501-0.198-2.848-0.596-4.04c-0.397-1.191-0.968-2.204-1.712-3.036c-0.745-0.833-1.649-1.47-2.716-1.911   c-1.065-0.441-2.268-0.662-3.604-0.662s-2.541,0.221-3.613,0.662s-1.984,1.078-2.734,1.911c-0.751,0.832-1.327,1.845-1.731,3.036   c-0.403,1.192-0.605,2.539-0.605,4.04s0.202,2.848,0.605,4.039c0.404,1.192,0.98,2.202,1.731,3.027   c0.75,0.827,1.662,1.461,2.734,1.902s2.276,0.662,3.613,0.662s2.539-0.221,3.604-0.662c1.066-0.441,1.971-1.075,2.716-1.902   c0.744-0.825,1.314-1.835,1.712-3.027C207.084,128.452,207.282,127.105,207.282,125.604z"/>
	<path d="M227.528,135.179c0.984,0,1.864-0.164,2.64-0.492s1.432-0.788,1.968-1.382c0.536-0.593,0.946-1.312,1.229-2.156   c0.284-0.846,0.426-1.791,0.426-2.839v-16.385h5.09v16.385c0,1.628-0.262,3.132-0.785,4.513c-0.523,1.382-1.277,2.573-2.261,3.576   c-0.984,1.003-2.176,1.785-3.576,2.347c-1.4,0.561-2.978,0.842-4.73,0.842s-3.33-0.281-4.73-0.842   c-1.399-0.562-2.589-1.344-3.566-2.347s-1.729-2.194-2.252-3.576c-0.523-1.381-0.785-2.885-0.785-4.513v-16.385h5.09v16.366   c0,1.047,0.143,1.993,0.426,2.838c0.284,0.846,0.69,1.567,1.221,2.167c0.529,0.599,1.183,1.063,1.958,1.391   C225.665,135.015,226.545,135.179,227.528,135.179z"/>
	<path d="M258.729,116.9c-0.139,0.278-0.3,0.474-0.482,0.587s-0.4,0.17-0.652,0.17c-0.253,0-0.536-0.098-0.852-0.293   s-0.688-0.413-1.116-0.652c-0.429-0.24-0.931-0.458-1.504-0.653c-0.574-0.195-1.252-0.293-2.034-0.293   c-0.707,0-1.321,0.085-1.845,0.255c-0.523,0.171-0.965,0.407-1.325,0.71c-0.359,0.303-0.627,0.665-0.804,1.088   s-0.265,0.887-0.265,1.391c0,0.644,0.18,1.18,0.539,1.608s0.835,0.795,1.429,1.098c0.593,0.303,1.268,0.574,2.024,0.813   s1.529,0.495,2.317,0.766c0.788,0.271,1.562,0.587,2.318,0.946s1.432,0.813,2.024,1.362s1.069,1.221,1.429,2.016   c0.359,0.794,0.539,1.76,0.539,2.895c0,1.236-0.211,2.394-0.634,3.472c-0.423,1.079-1.041,2.019-1.854,2.819   c-0.813,0.802-1.807,1.432-2.979,1.893c-1.174,0.46-2.517,0.69-4.03,0.69c-0.871,0-1.729-0.085-2.573-0.256   c-0.846-0.17-1.656-0.412-2.432-0.729c-0.775-0.314-1.501-0.693-2.176-1.135s-1.277-0.934-1.807-1.476l1.476-2.441   c0.139-0.176,0.306-0.324,0.501-0.444s0.413-0.18,0.653-0.18c0.314,0,0.655,0.13,1.021,0.388c0.365,0.259,0.798,0.546,1.296,0.861   s1.085,0.603,1.76,0.86c0.675,0.259,1.485,0.388,2.432,0.388c1.45,0,2.573-0.343,3.367-1.03c0.795-0.688,1.192-1.675,1.192-2.962   c0-0.719-0.18-1.306-0.539-1.76s-0.836-0.835-1.429-1.145c-0.593-0.309-1.268-0.57-2.024-0.785c-0.757-0.214-1.526-0.447-2.309-0.7   c-0.782-0.252-1.552-0.555-2.309-0.908c-0.757-0.353-1.432-0.813-2.024-1.381s-1.068-1.277-1.429-2.129   c-0.359-0.852-0.539-1.901-0.539-3.15c0-0.996,0.199-1.968,0.597-2.913c0.396-0.946,0.977-1.785,1.74-2.517   c0.763-0.731,1.7-1.318,2.81-1.76c1.11-0.441,2.378-0.662,3.804-0.662c1.614,0,3.103,0.252,4.465,0.757   c1.362,0.504,2.522,1.211,3.481,2.119L258.729,116.9z"/>
	<path d="M281.623,111.925v4.049h-12.129v7.587h9.556v3.917h-9.556v7.738h12.129v4.068h-17.256v-27.359H281.623z"/>
</g>
<g>
	<g>
		<path d="M80.764,39.246l4.295,8.155h40.947c-0.655-2.616-1.042-5.336-1.042-8.155H80.764z"/>
		<path d="M138.759,66.281H95.015l2.262,4.295h47.002v3.431H99.086l2.262,4.291h42.931v3.436h-41.122l3.623,6.867h51.657V72.718    C151.073,72.718,144.285,70.311,138.759,66.281z"/>
		<path d="M86.873,50.833l2.262,4.29h39.832c-0.74-1.37-1.354-2.813-1.9-4.29H86.873z"/>
		<path d="M90.944,58.559l2.262,4.291h41.504c-1.315-1.322-2.502-2.765-3.582-4.291H90.944z"/>
		<path d="M231.816,47.401l4.299-8.155h-44.2c0,2.819-0.386,5.539-1.042,8.155H231.816z"/>
		<path d="M223.673,62.849l2.262-4.291h-40.184c-1.08,1.526-2.266,2.969-3.581,4.291H223.673z"/>
		<path d="M227.744,55.122l2.262-4.29h-40.194c-0.546,1.477-1.16,2.92-1.9,4.29H227.744z"/>
		<path d="M158.437,88.6h51.662l3.618-6.867h-41.117v-3.436h42.926l2.261-4.291h-45.187v-3.431h46.998l2.266-4.295h-43.744    c-5.528,4.03-12.316,6.437-19.684,6.437V88.6z"/>
	</g>
	<g>
		<g>
			<g>
				<path d="M130.196,39.246c0,15.599,12.643,28.245,28.241,28.245V11C142.839,11,130.196,23.647,130.196,39.246z"/>
			</g>
			<g>
				<path d="M158.437,11v56.491c15.599,0,28.246-12.647,28.246-28.245S174.036,11,158.437,11z"/>
			</g>
		</g>
	</g>
</g>
</svg>