<?xml version="1.0" encoding="UTF-8"?>
<!-- Generator: Adobe Illustrator 17.0.0, SVG Export Plug-In . SVG Version: 6.00 Build 0)  -->
<!DOCTYPE svg PUBLIC "-//W3C//DTD SVG 1.1//EN" "http://www.w3.org/Graphics/SVG/1.1/DTD/svg11.dtd">
<svg version="1.1" id="Layer_1" xmlns="http://www.w3.org/2000/svg" xmlns:xlink="http://www.w3.org/1999/xlink" x="0px" y="0px" width="320px" height="150px" viewBox="0 0 320 150" enable-background="new 0 0 320 150" xml:space="preserve">
<g>
	<path d="M107.882,123.991v13.83c0,0.491-0.182,0.907-0.544,1.246s-0.807,0.509-1.333,0.509c-0.576,0-1.039-0.17-1.389-0.509   c-0.351-0.339-0.526-0.755-0.526-1.246v-5.125h-6.834v5.125c0,0.491-0.188,0.907-0.563,1.246s-0.839,0.509-1.389,0.509   c-0.526,0-0.964-0.176-1.314-0.526c-0.351-0.352-0.526-0.761-0.526-1.229v-13.9c0-0.936,0.194-1.819,0.582-2.649   c0.388-0.831,0.901-1.55,1.54-2.159c0.639-0.608,1.396-1.088,2.272-1.439c0.876-0.351,1.802-0.526,2.779-0.526   c1,0,1.939,0.176,2.816,0.526c0.876,0.352,1.639,0.825,2.291,1.422c0.651,0.597,1.17,1.305,1.558,2.124s0.582,1.685,0.582,2.598   V123.991z M104.09,123.921c0-0.444-0.088-0.859-0.263-1.246c-0.175-0.386-0.419-0.725-0.732-1.018   c-0.313-0.292-0.683-0.521-1.108-0.685c-0.426-0.163-0.876-0.245-1.352-0.245c-0.952,0-1.753,0.31-2.403,0.93   c-0.651,0.62-0.977,1.375-0.977,2.264v5.125h6.834V123.921z"/>
	<path d="M111.111,117.182c0.5,0,0.932,0.176,1.295,0.526c0.363,0.352,0.544,0.761,0.544,1.229v18.885   c0,0.491-0.182,0.907-0.544,1.246c-0.363,0.339-0.795,0.509-1.295,0.509c-0.551,0-1.008-0.17-1.371-0.509s-0.544-0.755-0.544-1.246   v-18.885c0-0.468,0.182-0.877,0.544-1.229C110.104,117.357,110.561,117.182,111.111,117.182z"/>
	<path d="M128.684,136.558c0.175,0.164,0.301,0.356,0.375,0.579c0.075,0.223,0.113,0.451,0.113,0.685   c0,0.234-0.038,0.462-0.113,0.685c-0.075,0.223-0.201,0.415-0.375,0.579c-0.201,0.188-0.419,0.315-0.657,0.386   c-0.238,0.07-0.482,0.105-0.732,0.105c-0.225,0-0.451-0.035-0.676-0.105c-0.226-0.07-0.438-0.198-0.638-0.386l-7.923-7.406v6.107   c0,0.515-0.188,0.942-0.563,1.281s-0.826,0.509-1.352,0.509c-0.501,0-0.938-0.17-1.314-0.509s-0.563-0.767-0.563-1.281v-12.882   c0.025-1.029,0.25-2.013,0.676-2.948c0.425-0.937,1.014-1.761,1.765-2.475s1.627-1.281,2.628-1.703   c1.001-0.421,2.09-0.632,3.267-0.632c1.076,0,2.109,0.199,3.098,0.597c0.988,0.398,1.858,0.948,2.609,1.65s1.352,1.526,1.803,2.475   c0.45,0.947,0.676,1.96,0.676,3.036c0,1.661-0.576,3.171-1.728,4.527c-1.151,1.357-2.679,2.423-4.581,3.194L128.684,136.558z    M122.601,120.728c-0.651,0-1.252,0.111-1.802,0.333c-0.551,0.223-1.027,0.521-1.427,0.896c-0.401,0.374-0.72,0.813-0.958,1.315   c-0.238,0.504-0.357,1.048-0.357,1.633c0,0.562,0.119,1.1,0.357,1.614c0.238,0.515,0.563,0.966,0.976,1.352s0.895,0.69,1.446,0.912   c0.55,0.223,1.139,0.334,1.765,0.334c0.601,0,1.17-0.105,1.708-0.316c0.538-0.21,1.014-0.509,1.427-0.895s0.738-0.83,0.976-1.334   c0.238-0.503,0.357-1.059,0.357-1.667c0-0.585-0.119-1.129-0.357-1.633c-0.238-0.503-0.563-0.941-0.976-1.315   s-0.889-0.673-1.427-0.896C123.771,120.839,123.202,120.728,122.601,120.728z"/>
	<path d="M144.191,120.728v6.563h6.045c0.55,0,1.001,0.182,1.352,0.544c0.35,0.363,0.525,0.778,0.525,1.246   c0,0.491-0.175,0.913-0.525,1.264c-0.351,0.351-0.802,0.526-1.352,0.526h-6.045v6.915c0,0.515-0.182,0.942-0.544,1.281   c-0.363,0.339-0.82,0.509-1.371,0.509c-0.551,0-1.008-0.17-1.371-0.509s-0.544-0.767-0.544-1.281v-18.85   c0-0.468,0.182-0.883,0.544-1.246c0.363-0.362,0.82-0.544,1.371-0.544h10.664c0.5,0,0.939,0.182,1.314,0.544   c0.375,0.363,0.563,0.778,0.563,1.246c0,0.516-0.188,0.942-0.563,1.281c-0.375,0.34-0.814,0.51-1.314,0.51H144.191z"/>
	<path d="M168.937,123.991v13.83c0,0.491-0.182,0.907-0.545,1.246c-0.362,0.339-0.807,0.509-1.333,0.509   c-0.576,0-1.039-0.17-1.389-0.509c-0.352-0.339-0.526-0.755-0.526-1.246v-5.125h-6.833v5.125c0,0.491-0.188,0.907-0.563,1.246   s-0.839,0.509-1.389,0.509c-0.526,0-0.964-0.176-1.314-0.526c-0.351-0.352-0.526-0.761-0.526-1.229v-13.9   c0-0.936,0.194-1.819,0.582-2.649c0.388-0.831,0.901-1.55,1.54-2.159c0.639-0.608,1.396-1.088,2.272-1.439   c0.876-0.351,1.802-0.526,2.778-0.526c1.001,0,1.939,0.176,2.816,0.526c0.876,0.352,1.639,0.825,2.29,1.422s1.17,1.305,1.559,2.124   c0.388,0.819,0.582,1.685,0.582,2.598V123.991z M165.144,123.921c0-0.444-0.088-0.859-0.263-1.246   c-0.175-0.386-0.419-0.725-0.731-1.018c-0.313-0.292-0.683-0.521-1.108-0.685c-0.426-0.163-0.876-0.245-1.352-0.245   c-0.951,0-1.752,0.31-2.403,0.93c-0.651,0.62-0.977,1.375-0.977,2.264v5.125h6.833V123.921z"/>
	<path d="M174.813,121.587c-0.588,0.574-0.896,1.293-0.92,2.159c0.05,0.771,0.362,1.438,0.938,2s1.302,0.843,2.178,0.843h2.741   c0.877,0,1.729,0.17,2.555,0.509c0.826,0.34,1.557,0.802,2.195,1.387s1.152,1.275,1.541,2.071c0.387,0.796,0.582,1.649,0.582,2.562   c0,0.89-0.184,1.721-0.545,2.492c-0.363,0.772-0.852,1.451-1.465,2.036s-1.34,1.048-2.178,1.387   c-0.84,0.34-1.734,0.521-2.686,0.544h-7.134c-0.576,0-1.039-0.163-1.39-0.491c-0.351-0.327-0.525-0.761-0.525-1.299   c0-0.468,0.181-0.878,0.544-1.229c0.363-0.352,0.82-0.526,1.371-0.526h7.134c0.4,0,0.795-0.076,1.184-0.229   c0.387-0.151,0.725-0.362,1.014-0.632c0.287-0.269,0.52-0.579,0.695-0.93c0.174-0.352,0.262-0.726,0.262-1.124   c0-0.421-0.088-0.807-0.262-1.158c-0.176-0.351-0.402-0.66-0.676-0.93c-0.277-0.269-0.607-0.479-0.996-0.632   s-0.783-0.24-1.182-0.264h-2.78c-0.9-0.022-1.771-0.198-2.609-0.526c-0.839-0.327-1.577-0.777-2.215-1.352   c-0.639-0.573-1.146-1.251-1.521-2.035c-0.375-0.784-0.563-1.633-0.563-2.545c0-0.843,0.181-1.655,0.544-2.439   c0.362-0.784,0.857-1.48,1.483-2.089c0.625-0.608,1.357-1.094,2.196-1.457c0.839-0.362,1.733-0.544,2.685-0.544h7.136   c0.5,0,0.926,0.182,1.275,0.544c0.352,0.363,0.551,0.803,0.602,1.316c-0.025,0.492-0.213,0.901-0.563,1.229   c-0.352,0.328-0.789,0.492-1.314,0.492h-7.136C176.133,120.728,175.4,121.014,174.813,121.587z"/>
	<path d="M202.055,117.182c0.5,0,0.951,0.17,1.352,0.509c0.4,0.34,0.601,0.755,0.601,1.246v18.885c0,0.444-0.2,0.849-0.601,1.211   c-0.4,0.363-0.852,0.544-1.352,0.544c-0.501,0-0.938-0.17-1.314-0.509c-0.375-0.339-0.563-0.755-0.563-1.246v-7.652h-8.561v7.652   c0,0.491-0.183,0.907-0.545,1.246c-0.363,0.339-0.82,0.509-1.37,0.509c-0.501,0-0.934-0.163-1.296-0.491   c-0.363-0.327-0.558-0.749-0.582-1.264v-18.885c0-0.538,0.207-0.965,0.62-1.28c0.412-0.316,0.831-0.475,1.258-0.475   c0.55,0,1.007,0.176,1.37,0.526c0.362,0.352,0.545,0.761,0.545,1.229v7.652h8.561v-7.652c0-0.468,0.188-0.877,0.563-1.229   C201.116,117.357,201.554,117.182,202.055,117.182z"/>
	<path d="M207.273,117.182c0.501,0,0.933,0.176,1.296,0.526c0.362,0.352,0.544,0.761,0.544,1.229v18.885   c0,0.491-0.182,0.907-0.544,1.246c-0.363,0.339-0.795,0.509-1.296,0.509c-0.551,0-1.008-0.17-1.37-0.509   c-0.363-0.339-0.545-0.755-0.545-1.246v-18.885c0-0.468,0.182-0.877,0.545-1.229C206.266,117.357,206.723,117.182,207.273,117.182z   "/>
	<path d="M218.651,117.146c1.102,0,2.141,0.205,3.116,0.614c0.977,0.41,1.834,0.972,2.572,1.686s1.333,1.544,1.784,2.492   c0.45,0.947,0.713,1.947,0.788,3.001v6.81c-0.051,1.029-0.288,2.018-0.714,2.966c-0.426,0.947-1.001,1.778-1.727,2.492   c-0.727,0.714-1.59,1.287-2.591,1.72c-1.002,0.434-2.078,0.649-3.229,0.649c-1.102,0-2.141-0.204-3.117-0.614   c-0.976-0.409-1.834-0.971-2.571-1.685c-0.739-0.714-1.34-1.545-1.803-2.492c-0.464-0.948-0.732-1.96-0.808-3.036v-6.845   c0.025-1.029,0.257-2.013,0.695-2.948c0.438-0.937,1.025-1.761,1.765-2.475c0.738-0.714,1.608-1.281,2.609-1.703   C216.423,117.357,217.5,117.146,218.651,117.146z M218.651,136.031c0.601,0,1.176-0.111,1.728-0.334   c0.55-0.222,1.032-0.526,1.445-0.912c0.413-0.387,0.738-0.837,0.977-1.352c0.237-0.515,0.356-1.064,0.356-1.649v-6.88   c0-0.585-0.119-1.129-0.356-1.633c-0.238-0.503-0.563-0.941-0.977-1.315s-0.896-0.673-1.445-0.896   c-0.552-0.222-1.127-0.333-1.728-0.333c-0.626,0-1.215,0.111-1.765,0.333c-0.551,0.223-1.027,0.521-1.427,0.896   c-0.401,0.374-0.721,0.813-0.958,1.315c-0.238,0.504-0.356,1.048-0.356,1.633v6.88c0,0.585,0.118,1.135,0.356,1.649   c0.237,0.515,0.557,0.965,0.958,1.352c0.399,0.386,0.876,0.69,1.427,0.912C217.437,135.92,218.025,136.031,218.651,136.031z"/>
	<path d="M236.337,117.146c1.101,0,2.134,0.211,3.098,0.632c0.963,0.422,1.814,0.989,2.554,1.703   c0.737,0.714,1.339,1.538,1.802,2.475c0.463,0.936,0.732,1.93,0.808,2.983v12.847c0,0.515-0.182,0.942-0.545,1.281   s-0.807,0.509-1.333,0.509c-0.551,0-1.008-0.17-1.37-0.509c-0.363-0.339-0.545-0.767-0.545-1.281v-12.882   c0-0.585-0.119-1.129-0.356-1.633c-0.238-0.503-0.563-0.941-0.977-1.315s-0.895-0.673-1.445-0.896   c-0.551-0.222-1.126-0.333-1.728-0.333c-0.626,0-1.208,0.111-1.746,0.333c-0.538,0.223-1.014,0.521-1.427,0.896   s-0.738,0.813-0.976,1.315c-0.238,0.504-0.357,1.048-0.357,1.633v12.882c0,0.515-0.182,0.942-0.544,1.281   c-0.363,0.339-0.795,0.509-1.296,0.509c-0.576,0-1.039-0.17-1.389-0.509c-0.352-0.339-0.526-0.767-0.526-1.281v-12.882   c0.024-1.054,0.25-2.042,0.676-2.966c0.426-0.925,1.014-1.731,1.765-2.423c0.751-0.689,1.627-1.245,2.629-1.667   C234.108,117.428,235.185,117.194,236.337,117.146z"/>
</g>
<g>
	<path d="M231.669,93.802h1.449v13.039h-1.449V93.802L231.669,93.802z M223.7,93.802h2.173v13.039H223.7V93.802L223.7,93.802z    M229.496,93.802h1.449v13.039h-1.449V93.802L229.496,93.802z M212.834,93.802h1.449v13.039h-1.449V93.802L212.834,93.802z    M220.078,93.802h1.449v13.039h-1.449V93.802L220.078,93.802z M215.732,93.802h0.724v13.039h-0.724V93.802L215.732,93.802z    M203.417,93.802h1.449v13.039h-1.449V93.802L203.417,93.802z M207.764,93.802h0.724v13.039h-0.724V93.802L207.764,93.802z    M198.346,93.802h3.622v13.039h-3.622V93.802L198.346,93.802z M188.205,93.802h2.173v13.039h-2.173V93.802L188.205,93.802z    M196.173,93.802h1.449v13.039h-1.449V93.802L196.173,93.802z M191.827,93.802h2.898v13.039h-2.898V93.802L191.827,93.802z    M183.859,93.802h2.173v13.039h-2.173V93.802L183.859,93.802z M178.788,93.802h1.449v13.039h-1.449V93.802L178.788,93.802z    M176.615,93.802h1.449v13.039h-1.449V93.802L176.615,93.802z M171.544,93.802h2.173v13.039h-2.173V93.802L171.544,93.802z    M167.922,93.802h0.724v13.039h-0.724V93.802L167.922,93.802z M157.056,93.802h2.898v13.039h-2.898V93.802L157.056,93.802z    M160.678,93.802h1.449v13.039h-1.449V93.802L160.678,93.802z M153.434,93.802h2.898v13.039h-2.898V93.802L153.434,93.802z    M142.568,93.802h2.173v13.039h-2.173V93.802L142.568,93.802z M149.812,93.802h0.724v13.039h-0.724V93.802L149.812,93.802z    M145.465,93.802h1.449v13.039h-1.449V93.802L145.465,93.802z M127.356,93.802h2.898v13.039h-2.898V93.802L127.356,93.802z    M136.773,93.802h1.449v13.039h-1.449V93.802L136.773,93.802z M134.6,93.802h0.724v13.039H134.6V93.802L134.6,93.802z    M117.214,93.802h2.898v13.039h-2.898V93.802L117.214,93.802z M125.182,93.802h1.449v13.039h-1.449V93.802L125.182,93.802z    M120.112,93.802h0.724v13.039h-0.724V93.802L120.112,93.802z M103.45,93.802h2.173v13.039h-2.173V93.802L103.45,93.802z    M113.592,93.802h1.449v13.039h-1.449V93.802L113.592,93.802z M108.521,93.802h0.724v13.039h-0.724V93.802L108.521,93.802z"/>
	<g>
		<path d="M128.999,77.525l-7.307,12.655h20.565C137.657,88.006,132.781,84.464,128.999,77.525z"/>
		<path d="M168.398,9.477l-18.922,32.872c4.766,3.323,9.545,7.78,12.872,13.457l6.051-10.237l11.814,20.706h-13.739v3.438v4.557    v5.044h21.589l6.428,10.866h20.614L168.398,9.477z"/>
	</g>
	<g>
		<path d="M157.893,88.579c3.951-3.968,9.866-12.622,5.224-26.15c-5.596-16.309-24.102-23.927-29.698-25.895    c-0.353-0.124-0.646-0.224-0.889-0.302c-0.097,0.206-0.206,0.44-0.332,0.72c-2.431,5.408-9.672,24.068-1.714,39.366    c6.674,12.828,17.173,14.405,22.727,14.236c-1.432-5.988-4.543-17.829-9.131-29.037C152.364,73.302,156.169,82.816,157.893,88.579    z"/>
	</g>
</g>
</svg>